<svg width="1249" height="834" viewBox="0 0 1249 834" fill="none" xmlns="http://www.w3.org/2000/svg">
<path d="M763.018 108.705C744.468 72.8942 758.492 28.8419 794.341 10.3119L796.619 9.13448C832.467 -9.39553 876.566 4.61363 895.115 40.4248L1240.52 707.265C1259.07 743.076 1245.05 787.129 1209.2 805.659L1206.92 806.836C1171.08 825.366 1126.98 811.357 1108.43 775.546L763.018 108.705Z" fill="#00897B"/>
<path d="M760.564 50.2051C778.195 13.9339 821.922 -1.1919 858.232 16.4207L860.539 17.5398C896.848 35.1525 911.99 78.834 894.358 115.105L694.666 525.917C677.035 562.188 633.308 577.314 596.998 559.701L594.691 558.582C558.382 540.969 543.24 497.288 560.872 461.017L760.564 50.2051Z" fill="#00897B"/>
<path d="M620.444 428.504C660.807 428.762 693.318 461.658 693.059 501.978L693.042 504.54C692.784 544.861 659.854 577.337 619.491 577.079L382.331 575.561C341.968 575.302 309.458 542.407 309.716 502.086L309.733 499.524C309.991 459.204 342.922 426.727 383.284 426.986L620.444 428.504Z" fill="#00897B"/>
<path d="M917.884 685.697C937.897 713.327 936.128 754.16 930.207 786.03C924.692 815.714 896.995 834.145 866.773 833.952L382.958 830.854C342.595 830.596 310.084 797.7 310.343 757.38L310.359 754.818C310.618 714.497 343.548 682.021 383.911 682.279L754.589 684.652C762.229 684.701 769.942 683.679 776.433 679.653C786.814 673.213 802.07 659.734 807.682 634.226C816.515 594.076 880.637 634.276 917.884 685.697Z" fill="#FF8B30"/>
<g clip-path="url(#clip0_635_7)">
<path d="M143.349 504.875L151 676" stroke="#FF8B30" stroke-width="10" stroke-linecap="round" stroke-linejoin="round"/>
<path d="M154.349 504.875L187 921" stroke="#FF8B30" stroke-width="10" stroke-linecap="round" stroke-linejoin="round"/>
<path d="M451.844 375.785L489.702 437.353C498.309 451.349 495.442 471.61 481.735 493.678C468.027 515.746 444.6 537.813 416.607 555.026C388.615 572.238 358.351 583.186 332.471 585.46C306.592 587.735 287.219 581.15 278.612 567.153L240.754 505.586" fill="#2B3733"/>
<path d="M451.844 375.785L489.702 437.353C498.309 451.349 495.442 471.61 481.735 493.678C468.027 515.746 444.6 537.813 416.607 555.026C388.615 572.238 358.351 583.186 332.471 585.46C306.592 587.735 287.219 581.15 278.612 567.153L240.754 505.586" stroke="#FF8B30" stroke-width="10" stroke-linecap="round" stroke-linejoin="round"/>
<path d="M163.524 514.82C159.521 515.368 155.445 514.728 151.801 512.982C148.158 511.235 145.107 508.458 143.026 504.995C140.945 501.531 139.926 497.533 140.095 493.496C140.264 489.459 141.614 485.56 143.977 482.283L252.52 320.898C255.818 315.989 260.131 311.846 265.169 308.748C270.207 305.65 275.851 303.671 281.72 302.943L474.659 278.848C478.634 278.294 482.684 278.91 486.315 280.621C489.945 282.333 492.998 285.065 495.101 288.484C497.203 291.903 498.263 295.86 498.152 299.872C498.041 303.884 496.763 307.777 494.475 311.074L385.993 472.518C382.695 477.427 378.382 481.571 373.344 484.669C368.306 487.767 362.662 489.746 356.793 490.474L163.524 514.82Z" fill="#2B3733" stroke="#FF8B30" stroke-width="10" stroke-linecap="round" stroke-linejoin="round"/>
</g>
<defs>
<clipPath id="clip0_635_7">
<rect width="495.609" height="495.609" fill="white" transform="matrix(-0.85184 0.523802 0.523802 0.85184 422.18 91)"/>
</clipPath>
</defs>
</svg>
